<svg width="1600" height="1200" viewBox="0 0 1600 1200" fill="none" xmlns="http://www.w3.org/2000/svg">
  <rect width="1600" height="1200" fill="#0A0C10"/>
  <g opacity="0.95" stroke="url(#line)" stroke-width="2">
    <path d="M1090 120H860V260H700V410H520V560H350"/>
    <path d="M1210 210H990V330H840V480H680V640H540"/>
    <path d="M1310 340H1140V470H980V620H810V790H650"/>
    <path d="M1380 470H1210V610H1060V760H910V920H760"/>
    <path d="M1250 120V300H1120V420H980V560H850"/>
    <path d="M1110 220V360H980V500H830V650H710"/>
    <path d="M1370 280V420H1240V570H1090V730H950"/>
    <path d="M1470 420V580H1320V720H1160V880H1030"/>
    <path d="M980 100H880V180H780V260H690V360H600"/>
    <path d="M920 760H820V840H730V930H650V1030H560"/>
  </g>
  <g fill="url(#node)">
    <circle cx="1090" cy="120" r="9"/>
    <circle cx="860" cy="260" r="9"/>
    <circle cx="700" cy="410" r="9"/>
    <circle cx="520" cy="560" r="9"/>
    <circle cx="1210" cy="210" r="9"/>
    <circle cx="840" cy="480" r="9"/>
    <circle cx="540" cy="640" r="9"/>
    <circle cx="1310" cy="340" r="9"/>
    <circle cx="980" cy="620" r="9"/>
    <circle cx="650" cy="790" r="9"/>
    <circle cx="1380" cy="470" r="9"/>
    <circle cx="1060" cy="760" r="9"/>
    <circle cx="760" cy="920" r="9"/>
    <circle cx="1250" cy="300" r="9"/>
    <circle cx="980" cy="560" r="9"/>
    <circle cx="850" cy="560" r="9"/>
    <circle cx="1470" cy="420" r="9"/>
    <circle cx="1160" cy="880" r="9"/>
    <circle cx="980" cy="100" r="9"/>
    <circle cx="600" cy="360" r="9"/>
  </g>
  <defs>
    <linearGradient id="line" x1="350" y1="100" x2="1470" y2="1030" gradientUnits="userSpaceOnUse">
      <stop stop-color="#153B5E"/>
      <stop offset="0.45" stop-color="#2486B8"/>
      <stop offset="1" stop-color="#5BE7FF"/>
    </linearGradient>
    <radialGradient id="node" cx="0" cy="0" r="1" gradientUnits="userSpaceOnUse" gradientTransform="translate(0 0) rotate(90) scale(10)">
      <stop stop-color="#B6F4FF"/>
      <stop offset="1" stop-color="#2FB9FF"/>
    </radialGradient>
  </defs>
</svg>
